<svg width="16" height="24" viewBox="0 0 16 24" fill="none" xmlns="http://www.w3.org/2000/svg">
<path fill-rule="evenodd" clip-rule="evenodd" d="M14.4166 22.9636C14.0274 23.317 13.4997 23.5156 12.9495 23.5156C12.3993 23.5156 11.8716 23.317 11.4825 22.9636L1.10753 13.5376C0.718529 13.1841 0.5 12.7047 0.5 12.2048C0.5 11.7049 0.718529 11.2255 1.10753 10.8719L11.4825 1.44595C11.8739 1.10254 12.398 0.912524 12.9421 0.916819C13.4861 0.921115 14.0066 1.11938 14.3913 1.46891C14.776 1.81844 14.9942 2.29127 14.999 2.78557C15.0037 3.27986 14.7945 3.75607 14.4166 4.11162L5.5086 12.2048L14.4166 20.2979C14.8056 20.6515 15.0241 21.1309 15.0241 21.6308C15.0241 22.1307 14.8056 22.6101 14.4166 22.9636Z" fill="#FAFAFA"/>
</svg>
