<svg width="52" height="48" viewBox="0 0 52 48" fill="none" xmlns="http://www.w3.org/2000/svg">
<path d="M0.939339 10.9393C0.353554 11.5251 0.353554 12.4749 0.939339 13.0607L10.4853 22.6066C11.0711 23.1924 12.0208 23.1924 12.6066 22.6066C13.1924 22.0208 13.1924 21.0711 12.6066 20.4853L4.12132 12L12.6066 3.51472C13.1924 2.92894 13.1924 1.97919 12.6066 1.3934C12.0208 0.807615 11.0711 0.807615 10.4853 1.3934L0.939339 10.9393ZM50 10.5L2 10.5L2 13.5L50 13.5L50 10.5Z" fill="#FAFAFA" fill-opacity="0.65"/>
<path d="M51.0607 37.0607C51.6464 36.4749 51.6464 35.5251 51.0607 34.9394L41.5147 25.3934C40.9289 24.8076 39.9792 24.8076 39.3934 25.3934C38.8076 25.9792 38.8076 26.9289 39.3934 27.5147L47.8787 36L39.3934 44.4853C38.8076 45.0711 38.8076 46.0208 39.3934 46.6066C39.9792 47.1924 40.9289 47.1924 41.5147 46.6066L51.0607 37.0607ZM2 37.5L50 37.5L50 34.5L2 34.5L2 37.5Z" fill="#FAFAFA" fill-opacity="0.65"/>
</svg>
