<svg xmlns="http://www.w3.org/2000/svg" width="138" height="223" fill="#ffab91" fill-rule="evenodd" xmlns:v="https://vecta.io/nano"><path d="M113.796 1.826c28.945-8.359 51.396 25.197 74.842 44.048 16.62 13.363 32.656 27.204 39.059 47.532 6.332 20.102 2.905 41.072-4.988 60.633-8.843 21.917-20.906 42.396-41.371 54.268-26.084 15.131-57.556 31.591-84.928 19.001-27.689-12.735-37.284-47.175-41.793-77.285-3.783-25.257 10.092-47.362 19.57-71.098C85.324 51.037 84.91 10.168 113.796 1.826z"/><path opacity=".25" d="M100.271 1.826c28.945-8.359 51.396 25.197 74.842 44.048 16.62 13.363 32.656 27.204 39.06 47.532 6.331 20.102 2.904 41.072-4.989 60.633-8.842 21.917-20.906 42.396-41.371 54.268-26.084 15.131-57.556 31.591-84.928 19.001-27.689-12.735-37.284-47.175-41.793-77.285-3.783-25.257 10.092-47.362 19.57-71.098 11.137-27.889 10.723-68.758 39.609-77.099z"/></svg>