<svg xmlns="http://www.w3.org/2000/svg" width="165" height="223" fill="none" fill-rule="evenodd" xmlns:v="https://vecta.io/nano"><path d="M287.069-13.704c24.824 9.084 32.639 47.531 33.34 76.712.614 25.587-20.631 43.798-29.885 67.283-7.411 18.808-7.471 40.129-18.82 56.327-13.825 19.733-30.217 38.948-52.015 44.776-24.038 6.427-51.837 4.882-71.412-11.775-19.234-16.367-17.009-48.533-27.84-72.679-12.83-28.603-43.16-49.459-41.301-81.462 1.908-32.839 22.177-69.324 50.584-78.319 29.207-9.248 52.067 36.382 82.383 36.216 27.961-.153 48.443-46.784 74.966-37.078z" fill="#4c17bf"/><path opacity=".25" d="M259.914-13.704c24.823 9.084 32.639 47.531 33.339 76.712.614 25.587-20.631 43.798-29.884 67.283-7.411 18.808-7.472 40.13-18.82 56.327-13.825 19.733-30.217 38.948-52.015 44.776-24.038 6.427-51.837 4.882-71.412-11.775-19.235-16.367-17.009-48.533-27.84-72.679-12.83-28.603-43.16-49.459-41.301-81.462 1.908-32.839 22.177-69.324 50.584-78.319 29.207-9.248 52.067 36.382 82.382 36.216 27.961-.153 48.444-46.784 74.967-37.078z" fill="#651fff"/></svg>