<svg width="25" height="25" viewBox="0 0 25 25" fill="none" xmlns="http://www.w3.org/2000/svg">
<path d="M24.6689 17.2689C22.2985 18.3411 19.6577 18.6655 17.0983 18.1989C14.5389 17.7324 12.1824 16.497 10.3428 14.6574C8.50321 12.8178 7.26784 10.4613 6.80128 7.90191C6.33473 5.3425 6.65915 2.70168 7.73132 0.331299C5.84422 1.18412 4.19218 2.48201 2.91693 4.11363C1.64168 5.74525 0.781288 7.66189 0.409577 9.69912C0.0378653 11.7363 0.165927 13.8333 0.782776 15.8102C1.39963 17.787 2.48685 19.5847 3.95116 21.0491C5.41548 22.5134 7.21318 23.6006 9.19003 24.2174C11.1669 24.8343 13.2639 24.9624 15.3011 24.5906C17.3383 24.2189 19.255 23.3585 20.8866 22.0833C22.5182 20.808 23.8161 19.156 24.6689 17.2689V17.2689Z" fill="white"/>
</svg>
