<svg width="205" height="197" viewBox="0 0 205 197" fill="none" xmlns="http://www.w3.org/2000/svg">
<path d="M98.694 186.902C98.1114 187.048 97.5289 187.097 96.9463 187.097C96.8492 187.097 96.7521 187.097 96.655 187.097C92.5772 186.951 88.7906 183.747 86.4604 179.475C76.1201 160.445 73.3044 148.697 69.5663 135.832C68.644 132.628 68.8867 129.375 70.246 127.045C71.314 125.249 73.0131 123.938 75.3433 123.695C75.6346 123.647 75.8773 123.647 76.1686 123.647C80.295 123.647 84.6156 126.948 86.3147 131.22L104.034 174.62C106.267 180.106 103.84 185.737 98.694 186.902Z" fill="#FFB96C"/>
<path d="M96.6551 187.097C92.5772 186.951 88.7906 183.747 86.4604 179.475C76.1201 160.445 73.3044 148.697 69.5663 135.832C68.644 132.628 68.8867 129.375 70.246 127.045C74.8579 138.211 90.0042 174.863 94.6647 183.407C95.3929 184.766 96.0725 185.98 96.6551 187.097Z" fill="#FCAF63"/>
<path d="M120.928 180.349C120.491 181.466 119.909 182.34 119.326 182.777C115.831 185.544 112.384 186.175 106.607 187.437C100.83 188.699 94.859 188.408 92.0919 185.787C91.1695 184.913 90.4899 183.942 90.1015 182.922C88.8878 180.01 89.9559 176.951 93.4026 175.64C95.4416 174.864 113.986 170.495 117.045 171.077C122.336 172.097 122.239 177.097 120.928 180.349Z" fill="#FFB96C"/>
<path d="M120.928 180.349C120.491 181.465 119.909 182.339 119.326 182.776C115.831 185.543 112.384 186.174 106.607 187.437C100.83 188.699 94.8591 188.408 92.0919 185.786C91.1696 184.912 90.4899 183.941 90.1016 182.922C91.655 183.359 94.762 183.941 100.054 183.359C104.52 182.873 113.695 181.465 120.928 180.349Z" fill="#FCAF63"/>
<path d="M116.073 171.416C110.296 173.358 110.928 177.193 111.801 180.931C112.675 184.669 119.86 194.282 122.045 194.767C124.229 195.252 124.375 194.379 123.792 192.582C123.21 190.786 119.083 184.524 119.083 184.524C119.083 184.524 123.647 190.738 125.54 192.582C127.433 194.427 129.035 194.282 128.987 192.243C128.89 190.204 124.375 183.359 124.375 183.359C124.375 183.359 128.356 188.602 130.006 190.398C131.657 192.194 133.841 191.903 133.065 189.475C132.336 187.048 129.035 181.757 129.035 181.757C129.035 181.757 132.239 187.097 134.375 187.631C136.511 188.165 135.201 184.961 132.919 180.883C130.686 176.708 123.258 168.989 116.073 171.416Z" fill="#FEA691"/>
<path d="M111.219 176.756C111.219 176.756 110.005 181.514 110.782 185.689C111.559 189.864 112.87 190.689 113.743 190.883C114.617 191.078 114.908 189.961 114.472 188.165C114.035 186.369 115.2 182.825 115.2 182.825C115.2 182.825 113.938 175.688 111.219 176.756Z" fill="#FEA691"/>
<path d="M88.3536 192H39.3706C39.3706 192 32.6227 144.813 36.8948 133.211C38.1084 129.909 39.7105 127.239 41.5552 125.006C46.1671 119.375 52.0897 116.802 56.119 115.782C61.4106 114.423 66.0224 114.375 70.0032 115.346C80.5862 117.87 86.4603 127.531 88.3536 138.065C90.9751 152.58 88.3536 192 88.3536 192Z" fill="#FEC272"/>
<path d="M56.5561 125.249C50.148 126.9 44.274 126.705 41.5068 125.006C46.1187 119.375 52.0413 116.802 56.0707 115.782C61.3622 114.423 65.9741 114.375 69.9548 115.346C70.8287 118.647 64.8089 123.113 56.5561 125.249Z" fill="#F9B35F"/>
<path d="M52.3812 136.317C52.3812 137.094 52.3327 137.871 52.187 138.599C50.1967 151.512 38.7398 182.582 38.7398 182.582C37.9145 185.058 36.1668 186.902 34.0308 187.922C31.8948 188.893 29.4189 189.087 27.0402 188.165C23.3507 186.708 21.603 183.213 21.603 179.378C21.603 178.552 21.7001 177.727 21.8458 176.902C25.1954 158.794 31.1666 143.793 36.0697 133.21C38.2058 128.55 43.4488 125.637 48.0606 127.967C49.4685 128.647 50.4394 129.764 51.1676 131.026C52.0414 132.579 52.3812 134.424 52.3812 136.317Z" fill="#FFCD92"/>
<path d="M52.3814 136.317C52.3814 137.094 52.3329 137.871 52.1872 138.599C50.1968 151.512 38.74 182.582 38.74 182.582C37.9147 185.058 36.167 186.903 34.031 187.922L51.1192 130.977C52.0416 132.579 52.3814 134.424 52.3814 136.317Z" fill="#FCB765"/>
<path d="M67.6732 187.825C66.6052 190.446 63.1098 190.543 63.1098 190.543C63.1098 190.543 53.3035 191.126 44.808 191.126C36.3124 191.126 27.9625 191.126 24.5643 187.291C23.8846 186.514 23.3506 185.64 23.0593 184.718C21.7971 181.174 23.3991 176.95 28.4479 174.814C32.0889 173.261 36.2639 173.795 40.8272 174.232C45.3905 174.669 54.1774 176.708 59.2747 178.067C64.4206 179.378 67.479 180.688 67.9159 185.543C68.0615 186.465 67.9159 187.194 67.6732 187.825Z" fill="#FFCD92"/>
<path d="M67.6732 187.825C66.6052 190.446 63.1098 190.543 63.1098 190.543C63.1098 190.543 53.3035 191.126 44.808 191.126C36.3124 191.126 27.9625 191.126 24.5643 187.291C23.8846 186.514 23.3506 185.64 23.0593 184.718C26.8459 185.883 31.9433 187.242 36.0211 187.582C47.5266 188.553 62.77 188.067 67.6732 187.825Z" fill="#FCB765"/>
<path d="M77.9165 180.009C77.9165 180.786 77.8194 181.611 77.6252 182.485C76.6058 186.66 71.2172 189.864 63.0129 190.301C59.3719 190.495 56.8961 190.495 55.2455 190.107C53.1095 189.573 52.2842 188.31 52.09 185.689C51.8473 182.339 54.3717 179.281 56.265 177.97C61.9449 174.135 67.2364 173.844 71.8483 174.281C75.9747 174.717 77.868 176.999 77.9165 180.009Z" fill="#FEA691"/>
<path d="M77.9167 180.009C77.9167 180.786 77.8196 181.611 77.6254 182.485C76.6059 186.66 71.2173 189.864 63.013 190.301C59.3721 190.495 56.8962 190.495 55.2456 190.107C55.0514 189.621 54.9058 189.039 54.8573 188.31C54.6145 185.446 56.9933 182.776 58.838 181.66C64.2267 178.358 69.2755 178.067 73.6446 178.504C75.5865 178.65 76.9943 179.184 77.9167 180.009Z" fill="#FC8172"/>
<path d="M84.2759 188.456C84.2759 188.99 84.1788 189.475 84.0332 190.009H57.3328C57.1872 189.524 57.0901 188.99 57.0901 188.456C57.0901 183.796 63.1583 180.009 70.683 180.009C78.2076 180.009 84.2759 183.796 84.2759 188.456Z" fill="#C7DCF9"/>
<path opacity="0.55" d="M83.6933 189.184C83.6933 189.475 83.6447 189.718 83.4991 190.009H59.0804C58.9348 189.718 58.8862 189.475 58.8862 189.184C58.8862 186.708 64.4205 184.669 71.2655 184.669C78.159 184.669 83.6933 186.708 83.6933 189.184Z" fill="#C7DCF9"/>
<path d="M78.402 172.873C80.1497 173.067 81.3633 174.183 82.043 176.514C82.7226 178.844 82.8682 182.291 82.14 183.504C81.4118 184.718 80.0526 185.252 78.5476 184.038C77.0427 182.825 76.2174 179.426 75.732 177.727C75.1494 175.494 74.4698 172.484 78.402 172.873Z" fill="#FEA691"/>
<path d="M71.8967 171.756C73.79 171.95 74.5668 173.552 75.295 175.98C76.0232 178.407 76.1688 182.097 75.3921 183.407C74.6153 184.669 73.1589 185.252 71.5569 183.99C69.9549 182.728 69.0325 179.087 68.5471 177.29C67.916 174.912 67.6247 171.368 71.8967 171.756Z" fill="#FEA691"/>
<path d="M73.79 184.621C73.1103 184.767 72.3336 184.621 71.5569 183.941C69.9548 182.679 69.081 179.038 68.547 177.242C68.013 175.3 67.7217 172.533 70.0034 171.853C69.5665 173.164 69.8092 174.96 70.149 176.32C70.6345 178.407 71.5569 182.631 73.1589 184.087C73.4016 184.33 73.5958 184.524 73.79 184.621Z" fill="#FF8D76"/>
<path d="M64.8091 172.873C66.7024 173.067 67.9646 174.281 68.6928 176.708C69.421 179.135 69.5667 182.825 68.7899 184.135C68.0132 185.398 66.5568 185.98 64.9548 184.718C63.3528 183.456 62.4304 179.815 61.9449 178.019C61.3138 175.64 60.5856 172.436 64.8091 172.873Z" fill="#FEA691"/>
<path d="M66.7026 185.398C66.1686 185.398 65.586 185.155 65.0035 184.669C63.4015 183.407 62.5276 179.766 61.9936 177.97C61.5082 176.125 60.9256 173.795 62.7218 173.018C62.5762 174.232 62.916 175.786 63.2558 177.048C63.8384 179.232 64.8578 183.699 66.654 185.301C66.654 185.398 66.654 185.398 66.7026 185.398Z" fill="#FF8D76"/>
<path d="M58.4497 174.232C60.1002 173.746 61.3624 175.543 61.9935 177.776C62.6246 180.009 62.8188 183.407 62.0906 184.572C61.411 185.737 60.0517 186.271 58.5953 185.106C57.1389 183.941 56.7506 181.708 56.3137 180.057C55.7311 177.921 55.2456 175.203 58.4497 174.232Z" fill="#FEA691"/>
<path d="M60.2458 185.786C59.7118 185.786 59.1778 185.592 58.5952 185.106C57.1388 183.941 56.7505 181.708 56.3136 180.057C55.7796 178.213 55.3912 175.931 57.333 174.717C57.1874 176.028 57.4301 177.436 57.6729 178.698C58.1098 180.931 58.4496 183.99 60.1002 185.64C60.1487 185.689 60.1973 185.737 60.2458 185.786Z" fill="#FF8D76"/>
<path d="M80.4411 184.669C79.8585 184.718 79.2274 184.524 78.5963 183.99C77.0914 182.776 76.2661 179.378 75.7806 177.679C75.2952 175.883 74.7126 173.552 76.6545 172.97C76.6545 174.038 76.8972 175.252 77.1399 176.32C77.6254 178.504 78.5478 182.873 80.1012 184.427C80.2469 184.524 80.344 184.621 80.4411 184.669Z" fill="#FF8D76"/>
<path d="M57.1387 65.2945C57.1387 65.2945 61.6535 63.4497 64.7119 69.5665C67.7703 75.7319 64.4691 79.6641 64.4691 79.6641C64.4691 79.6641 61.4593 70.7802 57.1387 65.2945Z" fill="#FF8D76"/>
<path d="M60.2456 121.559C55.9735 123.55 53.0122 120.783 53.0122 120.783L50.3422 115.006L45.5361 104.617C52.7695 103.063 59.0805 101.85 59.0805 101.85L60.197 106.462L62.2845 115.054C62.1874 115.103 64.5176 119.618 60.2456 121.559Z" fill="#FEA691"/>
<path d="M60.1485 106.51C59.5174 107.433 58.8377 108.403 58.0124 109.326C55.925 111.802 52.9151 113.695 50.2936 115.006L45.4875 104.617C52.7209 103.063 59.0319 101.85 59.0319 101.85L60.1485 106.51Z" fill="#FF8D76"/>
<path d="M56.187 105.729C67.0006 99.1562 69.253 83.1115 61.2178 69.8923C53.1827 56.6731 37.9027 51.2853 27.0891 57.8582C16.2755 64.4312 14.0231 80.4759 22.0582 93.6951C30.0934 106.914 45.3734 112.302 56.187 105.729Z" fill="#FEA691"/>
<path d="M61.3136 101.122C59.9058 102.918 58.1581 104.471 56.1678 105.733C45.342 112.287 30.0985 106.899 22.0399 93.694C14.0783 80.6351 16.2143 64.7605 26.7488 58.0612C20.632 65.9256 20.3407 78.5476 26.8945 89.2763C34.9046 102.481 50.1966 107.869 61.0224 101.316C61.1195 101.267 61.2165 101.219 61.3136 101.122Z" fill="#FF8D76"/>
<path d="M32.0888 101.461C32.0888 101.461 23.836 94.9562 21.7485 83.3051C19.661 71.6541 21.9912 66.9451 31.5548 61.3137C41.1184 55.7309 48.2546 57.7213 48.2546 57.7213C48.2546 57.7213 41.4582 52.624 30.3411 54.5173C19.2241 56.362 7.91286 66.9451 10.2431 82.8682C12.6704 99.8593 22.768 104.86 32.0888 101.461Z" fill="#283575"/>
<path d="M42.0894 71.0229C40.7786 71.9453 42.6234 76.8484 46.6041 80.4894C50.5849 84.1304 54.4201 82.2371 54.5172 78.6447C54.6142 74.9551 46.6041 67.8189 42.0894 71.0229Z" fill="#F76F59"/>
<path d="M22.5254 92.6744C22.5254 92.6744 14.758 100.296 21.7487 106.947C28.448 113.307 36.8951 104.762 36.8951 104.762C36.8951 104.762 25.0498 98.4029 22.5254 92.6744Z" fill="#FF8D76"/>
<path d="M23.4477 97.0922C23.4477 97.0922 19.0786 101.364 23.0108 105.151C26.7974 108.743 31.5549 103.937 31.5549 103.937C31.5549 103.937 24.8555 100.345 23.4477 97.0922Z" fill="#F76F59"/>
<path d="M47.2837 57.0903C47.2837 57.0903 48.109 42.4293 39.7591 36.4582C30.3411 29.7588 25.0496 39.4195 28.1566 47.3325C29.5159 50.8764 30.9722 53.0124 32.1373 54.2746C33.2054 55.4397 34.6617 56.1193 36.2152 56.2164L47.2837 57.0903Z" fill="#283575"/>
<path d="M15.3403 44.711C7.91277 50.6336 14.3209 59.1291 17.3793 61.4108C18.69 62.3817 20.0978 63.1585 21.3115 63.741C22.9621 64.5178 24.9039 64.4207 26.4574 63.4497L36.9433 56.7989C36.9433 56.8475 25.1952 36.895 15.3403 44.711Z" fill="#283575"/>
<path d="M32.9624 34.8561C30.6322 35.1474 33.2051 39.6136 36.6034 40.1962C40.0016 40.7787 38.9336 34.1279 32.9624 34.8561Z" fill="#3C4E8E"/>
<path d="M18.253 44.808C16.8937 46.3615 20.4375 48.3519 23.3018 47.381C26.2145 46.4586 21.2628 41.4098 18.253 44.808Z" fill="#3C4E8E"/>
<path d="M61.4591 89.5675C61.2164 90.053 60.8766 90.4899 60.3911 90.8782C58.5949 92.2861 57.2356 94.325 56.2647 96.461C55.3909 98.3543 53.1578 100.587 51.0703 98.9854C50.8275 98.7912 50.5848 98.5971 50.3906 98.3058C48.206 95.5387 49.0313 88.4024 52.4296 85.2469C55.0511 82.8196 58.3036 83.4507 59.9542 84.81C61.5562 86.0236 62.2359 87.9655 61.4591 89.5675Z" fill="#F76F59"/>
<path d="M61.4592 89.5675C61.2164 90.053 60.8766 90.4899 60.3912 90.8783C58.595 92.2861 57.2357 94.325 56.2647 96.4611C55.3909 98.3544 53.1578 100.587 51.0703 98.9855C51.0703 95.9271 52.1869 92.3347 54.3229 90.3928C56.7987 88.1597 59.7115 88.451 61.4592 89.5675Z" fill="#FF6EA9"/>
<path d="M31.4093 81.169C29.8558 81.169 28.6422 80.6836 28.5451 80.635C27.914 80.3923 27.6227 79.6641 27.8655 79.033C28.1082 78.4019 28.8364 78.1106 29.4675 78.3534C29.516 78.3534 32.1861 79.4214 33.6424 77.8193C35.5357 75.829 33.5454 73.256 33.4968 73.1589C33.0599 72.6249 33.157 71.8482 33.691 71.4113C34.225 70.9743 35.0017 71.0714 35.4386 71.6054C36.6038 73.1104 38.1087 76.6542 35.4386 79.4699C34.225 80.7807 32.7201 81.169 31.4093 81.169Z" fill="#1C3177"/>
<path d="M49.4682 68.984C46.9924 68.984 44.9049 67.1392 44.7593 67.0421C44.2252 66.6052 44.2253 65.7799 44.6622 65.2945C45.0991 64.809 45.8758 64.7605 46.4098 65.1974C46.4098 65.1974 48.6429 67.0907 50.2935 66.3625C51.0217 66.0227 50.4877 64.5177 50.4391 64.4692C50.1964 63.8381 50.4877 63.1099 51.1673 62.8672C51.7984 62.6244 52.5266 62.9157 52.7694 63.5468C53.4975 65.343 53.3034 67.7218 51.313 68.5956C50.6819 68.8869 50.0508 68.984 49.4682 68.984Z" fill="#1C3177"/>
<path d="M24.904 78.2563C24.8554 78.2563 24.8069 78.2563 24.7583 78.2563C24.0787 78.1592 23.5932 77.5767 23.6418 76.897C23.6418 76.7514 23.9816 73.8386 26.0205 70.8773C28.0109 67.916 30.0498 66.8965 30.1469 66.848C30.778 66.5567 31.5062 66.7995 31.7975 67.4306C32.0888 68.0616 31.846 68.7898 31.215 69.0811C31.215 69.0811 29.6615 69.9064 28.0595 72.2366C26.4089 74.6639 26.1176 77.0912 26.1176 77.1398C26.0691 77.7709 25.5351 78.2563 24.904 78.2563Z" fill="#1C3177"/>
<path d="M42.6719 63.8867C42.332 63.8867 41.9437 63.741 41.7009 63.4497C41.264 62.9157 41.3611 62.139 41.8951 61.7021C42.0408 61.605 43.1573 60.6826 45.1477 60.1001C47.1381 59.5175 48.7887 59.5661 48.8372 59.5661C49.5168 59.5661 50.0508 60.1486 50.0508 60.8283C50.0508 61.5079 49.4198 62.0419 48.7887 62.0419C48.7887 62.0419 47.4779 61.9934 45.8759 62.4788C44.3224 62.9643 43.4486 63.6439 43.4486 63.6439C43.2059 63.7896 42.9631 63.8867 42.6719 63.8867Z" fill="#1C3177"/>
<path d="M201.369 197H3.49532C1.55348 197 0 195.447 0 193.505C0 191.563 1.55348 190.009 3.49532 190.009H201.369C203.311 190.009 204.864 191.563 204.864 193.505C204.864 195.398 203.311 197 201.369 197Z" fill="#99ADF9"/>
<path d="M201.029 197H32.0405C30.0986 197 28.5452 195.447 28.5452 193.505C28.5452 191.563 30.0986 190.009 32.0405 190.009H201.029C202.971 190.009 204.525 191.563 204.525 193.505C204.573 195.398 202.971 197 201.029 197Z" fill="#789FEF"/>
<path d="M177.921 167.096H87.6255C86.0234 167.096 84.7612 165.639 85.0525 164.037L94.6647 106.413C94.8588 105.151 95.9754 104.228 97.2376 104.228H187.533C189.135 104.228 190.398 105.685 190.106 107.287L180.543 164.911C180.3 166.173 179.232 167.096 177.921 167.096Z" fill="#E1ECFF"/>
<path d="M179.863 167.096H90.7324C89.1304 167.096 87.8682 165.639 88.1595 164.037L97.7716 106.413C97.9658 105.151 99.0823 104.228 100.345 104.228H189.475C191.077 104.228 192.339 105.685 192.048 107.287L182.436 164.911C182.242 166.173 181.125 167.096 179.863 167.096Z" fill="#C7DCF9"/>
<path d="M170.445 160.93H102.383C101.121 160.93 100.199 159.814 100.393 158.6L107.724 114.617C107.869 113.646 108.743 112.918 109.714 112.918H177.727C178.989 112.918 179.912 114.035 179.717 115.248L172.387 159.231C172.241 160.202 171.416 160.93 170.445 160.93Z" fill="#B7D4F7"/>
<path d="M141.366 186.417H128.987C127.822 186.417 126.948 185.446 127.045 184.281L130.298 151.998C130.395 151.027 131.22 150.25 132.239 150.25H144.619C145.784 150.25 146.658 151.221 146.56 152.386L143.308 184.669C143.211 185.689 142.386 186.417 141.366 186.417Z" fill="#E1ECFF"/>
<path d="M142.24 186.417H130.88C130.152 186.417 129.569 185.786 129.618 185.058L133.016 151.367C133.065 150.736 133.599 150.25 134.278 150.25H145.638C146.366 150.25 146.949 150.881 146.9 151.609L143.502 185.3C143.405 185.931 142.871 186.417 142.24 186.417Z" fill="#C7DCF9"/>
<path d="M161.95 189.961H110.394C109.326 189.961 108.452 189.087 108.452 188.019V183.747C108.452 182.679 109.326 181.805 110.394 181.805H161.95C163.018 181.805 163.892 182.679 163.892 183.747V188.019C163.892 189.087 163.018 189.961 161.95 189.961Z" fill="#E1ECFF"/>
<path d="M163.018 189.961H114.52C113.404 189.961 112.481 189.038 112.481 187.922V183.844C112.481 182.727 113.404 181.805 114.52 181.805H163.018C164.134 181.805 165.057 182.727 165.057 183.844V187.922C165.008 189.038 164.134 189.961 163.018 189.961Z" fill="#C7DCF9"/>
<path d="M199.233 96.2183C198.748 96.5582 198.117 96.8009 197.437 96.8009H150.93C148.6 96.8009 147.143 94.3736 148.211 92.2861L165.105 59.8088L171.319 47.8665C172.484 45.6819 175.591 45.6819 176.756 47.8665L200.155 92.2861C200.932 93.7425 200.398 95.3931 199.233 96.2183Z" fill="#FF97C9"/>
<path d="M199.233 96.2184C198.748 96.5582 198.117 96.8009 197.437 96.8009H150.93C148.6 96.8009 147.143 94.3736 148.211 92.2862L165.105 59.8088L159.959 87.1403C159.522 89.4705 161.124 91.6551 163.503 91.9463L199.233 96.2184Z" fill="#FC72BB"/>
<path d="M171.902 79.4214L169.474 62.0419C169.377 61.4593 169.863 60.9253 170.445 60.9253H177.339C177.921 60.9253 178.358 61.4593 178.31 62.0419L175.882 79.4214C175.834 79.9068 175.397 80.2466 174.912 80.2466H172.824C172.339 80.2952 171.95 79.9068 171.902 79.4214Z" fill="white"/>
<path d="M173.892 90.15C175.795 90.15 177.339 88.6068 177.339 86.7032C177.339 84.7996 175.795 83.2565 173.892 83.2565C171.988 83.2565 170.445 84.7996 170.445 86.7032C170.445 88.6068 171.988 90.15 173.892 90.15Z" fill="white"/>
<path d="M47.8664 19.7583L48.7402 21.5545C48.8373 21.7972 49.08 21.9429 49.3227 21.9429L51.2646 22.2341C51.8957 22.3312 52.1384 23.0594 51.653 23.4963L50.2451 24.8556C50.0509 25.0498 50.0024 25.2925 50.0509 25.5353L50.3907 27.4771C50.4878 28.0597 49.8567 28.5451 49.3227 28.2539L47.5751 27.3315C47.3809 27.2344 47.0896 27.2344 46.8954 27.3315L45.1478 28.2539C44.6138 28.5451 43.9827 28.0597 44.0798 27.4771L44.4196 25.5353C44.4681 25.2925 44.371 25.0498 44.2254 24.8556L42.8176 23.4963C42.3807 23.0594 42.6234 22.3312 43.2059 22.2341L45.1478 21.9429C45.3905 21.8943 45.5847 21.7487 45.7303 21.5545L46.6042 19.7583C46.7983 19.2243 47.5751 19.2243 47.8664 19.7583Z" fill="#FEC272"/>
<path d="M142.337 33.8366C142.337 40.536 140.395 46.7499 137.046 52.0414C135.832 54.8571 129.715 66.7508 108.937 76.2659C87.1402 86.2664 67.8188 79.1301 67.8188 79.1301C67.8188 79.1301 79.7126 71.3142 77.4795 58.2553C75.7319 47.9635 74.5182 40.5845 74.6153 34.3706C74.6153 34.1764 74.6153 34.0308 74.6153 33.8366C74.6153 15.1464 89.7617 0 108.452 0C127.142 0 142.337 15.1464 142.337 33.8366Z" fill="#F0F6FF"/>
<path d="M71.3625 56.3134C69.5663 51.7015 67.7701 51.8957 66.5564 52.7695C65.4398 53.5948 65.1971 56.459 66.5564 59.1776C67.9157 61.8962 69.275 61.702 70.6343 60.9738C71.9936 60.2456 72.1878 58.4494 71.3625 56.3134Z" fill="#C7DCF9"/>
<path d="M131.317 66.5081C123.841 70.4889 124.521 73.5473 126.268 75.3921C127.919 77.1397 132.822 76.9455 137.143 74.1299C141.463 71.3142 140.929 69.0325 139.424 66.848C137.919 64.6634 134.764 64.6149 131.317 66.5081Z" fill="#C7DCF9"/>
<path d="M132.773 44.3225C132.773 46.1673 131.9 48.012 130.249 49.1286C126.657 51.653 120.928 55.391 114.617 58.6922C110.588 60.8282 107.093 62.4787 104.277 63.6924C101.947 64.7119 99.3737 64.5177 97.2863 63.3526C95.8784 62.5758 94.7133 61.3622 93.9851 59.8087C93.4997 58.7407 93.2084 57.5756 93.2084 56.4105C93.2084 55.4396 93.4026 54.4686 93.7424 53.4977L93.9366 52.9637L102.287 31.7976L91.1209 37.8173C88.014 39.4679 84.1788 38.3999 82.3826 35.3415C82.3341 35.2444 82.2855 35.1473 82.237 35.0502C81.7515 34.0793 81.5088 33.0598 81.5088 32.0404C81.5088 29.9043 82.5768 27.7683 84.5187 26.5547C88.0625 24.273 93.2084 21.166 99.3252 17.9135C111.073 11.651 116.899 12.4277 118.549 15.5832C120.2 18.7873 110.734 45.5847 110.734 45.5847C110.734 45.5847 123.404 39.2252 124.763 38.7397C127.676 37.6232 130.929 38.9825 132.239 41.7981C132.531 42.4292 132.676 43.1089 132.725 43.7885C132.773 44.0312 132.773 44.1769 132.773 44.3225Z" fill="#99ADF9"/>
<path d="M105.83 28.3024C103.015 35.2444 96.3639 51.2161 94.0337 53.0123L102.384 31.8462L91.218 37.8659C88.111 39.565 84.1788 38.4485 82.4312 35.3415C82.5282 35.2444 82.4312 35.3415 82.5283 35.2444C83.6448 35.7785 85.6352 36.2639 88.5965 34.8075C94.1308 32.186 100.442 28.7393 104.083 26.7489C105.102 26.2149 106.267 27.2343 105.83 28.3024Z" fill="#7D9AF9"/>
<path d="M132.774 44.3226C132.774 46.1673 131.9 48.0121 130.249 49.1286C126.657 51.653 120.928 55.3911 114.617 58.6922C110.588 60.8282 107.093 62.4788 104.277 63.6925C101.947 64.7119 99.3739 64.5177 97.2864 63.3526C97.7233 63.2555 98.1602 63.1584 98.5486 63.0128C100.733 62.2846 110.588 57.0902 120.249 51.8958C126.56 48.4975 130.832 45.779 132.725 43.9342C132.774 44.0313 132.774 44.1769 132.774 44.3226Z" fill="#7D9AF9"/>
<path opacity="0.49" d="M108.306 15.0978C103.937 16.5542 101.704 19.2728 106.947 18.9815C112.19 18.6903 114.957 16.0202 114.035 15.1464C113.112 14.3211 110.297 14.4182 108.306 15.0978Z" fill="white"/>
<path opacity="0.49" d="M125.055 39.8563C122.288 40.7787 120.831 42.5263 124.181 42.3322C127.531 42.138 129.278 40.4389 128.696 39.9048C128.065 39.3708 126.317 39.4194 125.055 39.8563Z" fill="white"/>
</svg>
