<svg width="22" height="20" viewBox="0 0 22 20" fill="none" xmlns="http://www.w3.org/2000/svg">
<g clip-path="url(#clip0_76_4309)">
<path d="M8.50282 15.8334C4.23602 17.0834 4.23602 13.75 2.5293 13.3334M14.4763 18.3334V15.1084C14.5083 14.711 14.4534 14.3115 14.3151 13.9365C14.1768 13.5615 13.9583 13.2195 13.6742 12.9334C16.3537 12.6417 19.1698 11.65 19.1698 7.10003C19.1696 5.93655 18.7113 4.81769 17.8898 3.97503C18.2788 2.95712 18.2513 1.83199 17.813 0.833363C17.813 0.833363 16.806 0.541696 14.4763 2.0667C12.5204 1.54905 10.4587 1.54905 8.50282 2.0667C6.17314 0.541696 5.16618 0.833363 5.16618 0.833363C4.72787 1.83199 4.70037 2.95712 5.08938 3.97503C4.26173 4.82395 3.80296 5.95291 3.80934 7.12503C3.80934 11.6417 6.62542 12.6334 9.30497 12.9584C9.02422 13.2417 8.80769 13.5795 8.66949 13.95C8.53128 14.3204 8.47449 14.7151 8.50282 15.1084V18.3334" stroke="#FAFAFA" stroke-width="2" stroke-linecap="round" stroke-linejoin="round"/>
</g>
<defs>
<clipPath id="clip0_76_4309">
<rect width="20.4806" height="20" fill="white" transform="translate(0.82251)"/>
</clipPath>
</defs>
</svg>
